<?xml version="1.0" encoding="UTF-8" standalone="no"?>
<!DOCTYPE svg PUBLIC "-//W3C//DTD SVG 1.1//EN" "http://www.w3.org/Graphics/SVG/1.1/DTD/svg11.dtd">
<svg width="100%" height="100%" viewBox="0 0 128 128"
   xmlns="http://www.w3.org/2000/svg">
   <path d="M20,44C8.962,44 -0,52.962 -0,64C-0,75.038 8.962,84 20,84C31.038,84 40,75.038 40,64C40,52.962 31.038,44 20,44ZM20,56C24.415,56 28,59.585 28,64C28,68.415 24.415,72 20,72C15.585,72 12,68.415 12,64C12,59.585 15.585,56 20,56Z"/>
   <path d="M108,44C96.962,44 88,52.962 88,64C88,75.038 96.962,84 108,84C119.038,84 128,75.038 128,64C128,52.962 119.038,44 108,44ZM108,56C112.415,56 116,59.585 116,64C116,68.415 112.415,72 108,72C103.585,72 100,68.415 100,64C100,59.585 103.585,56 108,56Z"/>
   <path d="M64,33.5C47.167,33.5 33.5,47.167 33.5,64C33.5,80.833 47.167,94.5 64,94.5C80.833,94.5 94.5,80.833 94.5,64C94.5,47.167 80.833,33.5 64,33.5ZM64,45.5C74.21,45.5 82.5,53.79 82.5,64C82.5,74.21 74.21,82.5 64,82.5C53.79,82.5 45.5,74.21 45.5,64C45.5,53.79 53.79,45.5 64,45.5Z"/>
</svg>
