<?xml version="1.0" encoding="UTF-8" standalone="no"?>
<!DOCTYPE svg PUBLIC "-//W3C//DTD SVG 1.1//EN" "http://www.w3.org/Graphics/SVG/1.1/DTD/svg11.dtd">
<svg width="100%" height="100%" viewBox="0 0 32 32" xmlns="http://www.w3.org/2000/svg" xmlns:xlink="http://www.w3.org/1999/xlink" xml:space="preserve" xmlns:serif="http://www.serif.com/" style="fill-rule:evenodd;clip-rule:evenodd;stroke-linejoin:round;stroke-miterlimit:2;">
    <path d="M18.5,22.25C19.46,22.25 20.25,23.04 20.25,24C20.25,24.96 19.46,25.75 18.5,25.75C17.54,25.75 16.75,24.96 16.75,24C16.75,23.04 17.54,22.25 18.5,22.25ZM24,22.25C24.96,22.25 25.75,23.04 25.75,24C25.75,24.96 24.96,25.75 24,25.75C23.04,25.75 22.25,24.96 22.25,24C22.25,23.04 23.04,22.25 24,22.25ZM29.5,22.25C30.46,22.25 31.25,23.04 31.25,24C31.25,24.96 30.46,25.75 29.5,25.75C28.54,25.75 27.75,24.96 27.75,24C27.75,23.04 28.54,22.25 29.5,22.25Z"/>
    <path d="M1.778,19.75C1.347,19.75 1,20.097 1,20.528L1,27.723C1,28.154 1.347,28.5 1.778,28.5L14.222,28.5C14.653,28.5 15,28.154 15,27.723L15,20.528C15,20.097 14.653,19.75 14.222,19.75L1.778,19.75ZM2.434,20.65L7.757,25.973L8.219,25.973L13.566,20.65L14.101,21.184L10.917,24.417L13.323,26.872L12.788,27.406L10.333,24.952L8.559,26.75L7.441,26.75L5.667,24.952L3.212,27.431L2.678,26.872L5.108,24.417L1.9,21.185L2.434,20.65Z"/>
    <path d="M20.551,3.041C19.591,3.041 18.777,3.743 18.777,4.649C18.783,4.935 18.809,5.288 18.98,6.035L18.98,6.054L18.998,6.072C19.053,6.229 19.133,6.319 19.239,6.442C19.344,6.564 19.47,6.709 19.59,6.83C19.604,6.844 19.613,6.853 19.627,6.867C19.651,6.97 19.679,7.081 19.701,7.181C19.758,7.446 19.752,7.634 19.738,7.699C19.325,7.843 18.812,8.016 18.352,8.216C18.093,8.328 17.859,8.429 17.668,8.549C17.476,8.669 17.286,8.759 17.224,9.029C17.223,9.042 17.223,9.054 17.224,9.066C17.164,9.621 17.072,10.438 17.002,10.989C16.987,11.105 17.048,11.227 17.15,11.284C17.986,11.736 19.271,11.918 20.551,11.913C21.831,11.908 23.105,11.715 23.915,11.284C24.017,11.227 24.078,11.105 24.063,10.989C24.04,10.816 24.013,10.428 23.989,10.046C23.964,9.664 23.943,9.288 23.915,9.066C23.905,9.011 23.879,8.959 23.841,8.918C23.584,8.611 23.2,8.424 22.75,8.235C22.34,8.062 21.859,7.882 21.383,7.68C21.356,7.621 21.329,7.448 21.383,7.181C21.397,7.109 21.419,7.033 21.438,6.959C21.483,6.909 21.518,6.868 21.567,6.811C21.673,6.69 21.787,6.564 21.882,6.442C21.976,6.32 22.054,6.215 22.103,6.072L22.122,6.053C22.315,5.274 22.315,4.948 22.325,4.667L22.325,4.649C22.325,3.743 21.511,3.041 20.551,3.041L20.551,3.041ZM25.627,1.565C24.227,1.565 23.04,2.589 23.04,3.91C23.049,4.327 23.087,4.842 23.336,5.931L23.336,5.958L23.363,5.985C23.443,6.214 23.559,6.345 23.713,6.523C23.867,6.702 24.051,6.913 24.225,7.089C24.246,7.11 24.259,7.123 24.279,7.143C24.314,7.294 24.356,7.456 24.387,7.601C24.47,7.988 24.462,8.262 24.441,8.356C23.839,8.567 23.091,8.819 22.42,9.11C22.043,9.274 21.702,9.421 21.423,9.596C21.144,9.77 20.866,9.902 20.776,10.296C20.775,10.314 20.775,10.332 20.776,10.35C20.688,11.159 20.555,12.349 20.453,13.153C20.431,13.322 20.52,13.5 20.668,13.584C21.887,14.242 23.76,14.507 25.627,14.5C27.493,14.493 29.351,14.212 30.531,13.584C30.68,13.5 30.769,13.322 30.747,13.153C30.714,12.902 30.674,12.335 30.639,11.778C30.604,11.221 30.573,10.673 30.531,10.35C30.516,10.27 30.479,10.194 30.423,10.134C30.048,9.687 29.488,9.413 28.833,9.137C28.235,8.886 27.534,8.624 26.839,8.329C26.8,8.242 26.762,7.99 26.839,7.601C26.86,7.497 26.893,7.385 26.92,7.278C26.986,7.205 27.036,7.145 27.109,7.063C27.263,6.886 27.429,6.701 27.567,6.524C27.705,6.346 27.818,6.193 27.89,5.985L27.917,5.958C28.2,4.821 28.2,4.347 28.214,3.937L28.214,3.91C28.214,2.589 27.027,1.565 25.627,1.565L25.627,1.565Z"/>
    <path d="M4.425,1.5C3.93,1.5 3.532,1.898 3.532,2.393L3.532,4.179C3.532,4.673 3.93,5.071 4.425,5.071C4.92,5.071 5.318,4.673 5.318,4.179L5.318,2.393C5.318,1.898 4.92,1.5 4.425,1.5ZM11.568,1.5C11.073,1.5 10.675,1.898 10.675,2.393L10.675,4.179C10.675,4.673 11.073,5.071 11.568,5.071C12.063,5.071 12.461,4.673 12.461,4.179L12.461,2.393C12.461,1.898 12.063,1.5 11.568,1.5ZM5.764,3.286L5.764,4.179C5.764,4.921 5.167,5.518 4.425,5.518C3.683,5.518 3.086,4.921 3.086,4.179L3.086,3.342C2.314,3.539 1.746,4.237 1.746,5.071L1.746,12.214C1.746,13.204 2.543,14 3.532,14L12.461,14C13.45,14 14.247,13.204 14.247,12.214L14.247,5.071C14.247,4.237 13.679,3.539 12.907,3.342L12.907,4.179C12.907,4.921 12.31,5.518 11.568,5.518C10.826,5.518 10.229,4.921 10.229,4.179L10.229,3.286L5.764,3.286ZM3.128,7.304L12.865,7.304C12.89,7.304 12.907,7.321 12.907,7.345L12.907,12.619C12.907,12.643 12.89,12.661 12.865,12.661L3.128,12.661C3.103,12.661 3.086,12.643 3.086,12.619L3.086,7.345C3.086,7.321 3.103,7.304 3.128,7.304Z"/>
</svg>
