<?xml version="1.0" encoding="utf-8"?>
<svg version="1.1" xmlns="http://www.w3.org/2000/svg" viewBox="0 0 1024 1024">
<!-- This SVG must be black in order to render correctly as a macOS "template" image. -->
<path d="M513.6,266.9c-106.7,0-196.3,73.1-223.6,171.3
	c-23.9-52.6-76.5-89.8-137.6-89.8C69.2,348.5,0.8,416.9,0.8,500c0,83.2,68.4,151.6,151.6,151.6c61.1,0,113.7-37.3,137.5-89.9
	c27.4,98.3,117,171.4,223.7,171.4c106.1,0,195.2-72.3,223.2-169.7c24.3,51.6,76.1,88.2,136.5,88.2c83.2,0,151.6-68.4,151.6-151.6
	c0-83.2-68.4-151.6-151.6-151.6c-60.4,0-112.2,36.6-136.5,88.2C708.8,339.2,619.7,266.9,513.6,266.9L513.6,266.9z M513.6,355.9
	c80.1,0,144.1,64,144.1,144.1c0,80.1-64,144.2-144.1,144.1c-80.1,0-144.1-64-144.1-144.1C369.5,419.9,433.5,355.9,513.6,355.9
	L513.6,355.9z M152.3,437.4c35.1,0,62.6,27.5,62.6,62.6c0,35.1-27.5,62.6-62.6,62.6c-35.1,0-62.6-27.5-62.6-62.6
	C89.8,464.9,117.2,437.4,152.3,437.4L152.3,437.4z M873.2,437.4c35.1,0,62.6,27.5,62.6,62.6c0,35.1-27.5,62.6-62.6,62.6
	c-35.1,0-62.6-27.5-62.6-62.6C810.6,464.9,838.1,437.4,873.2,437.4L873.2,437.4z"/>
</svg>
