<?xml version="1.0" encoding="UTF-8" standalone="no"?>
<!-- Created with Inkscape (http://www.inkscape.org/) -->

<svg
   xmlns:dc="http://purl.org/dc/elements/1.1/"
   xmlns:cc="http://creativecommons.org/ns#"
   xmlns:rdf="http://www.w3.org/1999/02/22-rdf-syntax-ns#"
   xmlns:svg="http://www.w3.org/2000/svg"
   xmlns="http://www.w3.org/2000/svg"
   xmlns:sodipodi="http://sodipodi.sourceforge.net/DTD/sodipodi-0.dtd"
   xmlns:inkscape="http://www.inkscape.org/namespaces/inkscape"
   version="1.1"
   id="svg2"
   width="380.95239"
   height="144.7619"
   viewBox="0 0 380.95239 144.7619"
   sodipodi:docname="page_header.svg"
   inkscape:version="0.92.4 (5da689c313, 2019-01-14)">
  <metadata
     id="metadata8">
    <rdf:RDF>
      <cc:Work
         rdf:about="">
        <dc:format>image/svg+xml</dc:format>
        <dc:type
           rdf:resource="http://purl.org/dc/dcmitype/StillImage" />
        <dc:title />
      </cc:Work>
    </rdf:RDF>
  </metadata>
  <defs
     id="defs6">
    <clipPath
       clipPathUnits="userSpaceOnUse"
       id="clipPath26">
      <path
         d="M 0,425.197 H 425.197 V 0 H 0 Z"
         id="path24"
         inkscape:connector-curvature="0" />
    </clipPath>
  </defs>
  <sodipodi:namedview
     pagecolor="#ffffff"
     bordercolor="#666666"
     borderopacity="1"
     objecttolerance="10"
     gridtolerance="10"
     guidetolerance="10"
     inkscape:pageopacity="0"
     inkscape:pageshadow="2"
     inkscape:window-width="1920"
     inkscape:window-height="1001"
     id="namedview4"
     showgrid="false"
     inkscape:zoom="1.7797499"
     inkscape:cx="212.00176"
     inkscape:cy="78.409228"
     inkscape:window-x="-9"
     inkscape:window-y="-9"
     inkscape:window-maximized="1"
     inkscape:current-layer="g69" />
  <g
     transform="matrix(0.32283247,0,0,-0.32283247,5.3637617,200.63314)"
     id="g69">
    <path
       inkscape:connector-curvature="0"
       id="path12-4"
       style="fill:#a4a391;fill-opacity:1;fill-rule:nonzero;stroke:none;stroke-width:2.48249674"
       d="M 1163.4153,173.06574 H -16.614691 V 621.47788 H 1163.4153 Z" />
    <g
       id="g60"
       transform="translate(0,-4.7558045)">
      <path
         d="M 719.00745,214.99252 H 73.811516 V 574.01324 H 719.00745 Z"
         style="fill:#a4a391;fill-opacity:1;fill-rule:nonzero;stroke:none;stroke-width:1.64251399"
         id="path12"
         inkscape:connector-curvature="0" />
      <g
         id="g14"
         transform="matrix(1.642514,0,0,1.642514,252.9344,369.58906)">
        <path
           d="M 0,0 19.284,-27.829 H 2.722 L -9.831,-9.68 -22.385,-27.829 H -38.946 L -19.662,0 -38.946,27.905 h 16.561 L -9.831,9.755 2.722,27.905 h 16.562 z"
           style="fill:#b2cc35;fill-opacity:1;fill-rule:nonzero;stroke:none"
           id="path16"
           inkscape:connector-curvature="0" />
      </g>
      <path
         d="m 313.80416,323.8797 h -22.3579 v 91.54388 h 22.3579 z"
         style="fill:#b2cc35;fill-opacity:1;fill-rule:nonzero;stroke:none;stroke-width:1.64251399"
         id="path18"
         inkscape:connector-curvature="0" />
      <g
         id="g20"
         transform="matrix(1.642514,0,0,1.642514,49.408685,-4.8793311)">
        <g
           id="g22"
           clip-path="url(#clipPath26)">
          <g
             id="g28"
             transform="translate(168.231,255.8897)">
            <path
               d="m 0,0 h 40.76 c 7.487,0 13.613,-6.125 13.613,-13.612 v -28.434 c 0,-7.487 -6.126,-13.613 -13.613,-13.613 H 12.856 v -0.075 H -0.756 v 35.316 H 12.856 V -42.802 H 40.76 v 29.946 H 0 Z"
               style="fill:#b2cc35;fill-opacity:1;fill-rule:nonzero;stroke:none"
               id="path30"
               inkscape:connector-curvature="0" />
          </g>
          <g
             id="g32"
             transform="translate(228.96,255.8897)">
            <path
               d="m 0,0 h 40.761 c 7.487,0 13.612,-6.125 13.612,-13.612 v -28.434 c 0,-7.487 -6.125,-13.613 -13.612,-13.613 H 12.856 v -0.075 H -0.756 v 35.316 h 13.612 v -22.384 h 27.905 v 29.946 H 0 Z"
               style="fill:#b2cc35;fill-opacity:1;fill-rule:nonzero;stroke:none"
               id="path34"
               inkscape:connector-curvature="0" />
          </g>
          <path
             d="M 302.85,200.156 H 289.238 V 255.89 H 302.85 Z"
             style="fill:#b2cc35;fill-opacity:1;fill-rule:nonzero;stroke:none"
             id="path36"
             inkscape:connector-curvature="0" />
          <g
             id="g38"
             transform="translate(363.877,232.2198)">
            <path
               d="m 0,0 v -18.376 c 0,-7.487 -6.125,-13.613 -13.611,-13.613 h -28.132 c -7.486,0 -13.612,6.126 -13.612,13.613 v 28.434 c 0,7.486 6.126,13.612 13.612,13.612 H -1.512 V 10.814 h -40.231 v -29.946 h 28.132 v 6.276 h -14.52 V 0 Z"
               style="fill:#b2cc35;fill-opacity:1;fill-rule:nonzero;stroke:none"
               id="path40"
               inkscape:connector-curvature="0" />
          </g>
          <g
             id="g42"
             transform="translate(362.2295,154.941)">
            <path
               d="m 0,0 -249.563,8.153 -6.635,0.217 c -0.175,0 -4.199,-0.059 -7.828,-0.056 -5.704,0.008 -12.588,0.183 -18.479,1.067 -5.071,0.761 -34.827,11.97 -35.369,45.601 -0.48,29.735 22.979,40.98 31.835,44.163 1.939,0.696 3.138,2.624 2.984,4.678 -1.674,22.361 5.177,35.662 6.138,37.405 0.081,0.145 0.146,0.283 0.209,0.436 5.429,13.248 22.605,39.487 63.426,40.956 34.943,1.257 54.914,-27.218 60.094,-35.74 0.888,-1.46 2.509,-2.296 4.214,-2.18 0.674,0.046 14.377,16.642 30.867,17.744 5.896,0.394 14.606,0.798 22.902,-1.963 15.831,-5.268 31.868,-16.059 35.989,-18.322 4.768,-2.617 -14.629,13.287 -18.42,15.624 -0.02,0.012 -0.031,0.018 -0.031,0.018 -29.281,20.95 -58.372,10.249 -68.568,5.302 -2.104,-1.021 -4.638,-0.321 -5.881,1.66 -5.666,9.028 -23.826,31.268 -64.416,29.38 -50.819,-2.364 -71.797,-48.456 -71.797,-48.456 -6.356,-13.394 -6.956,-28.88 -6.893,-35.337 0.017,-1.791 -0.986,-3.45 -2.604,-4.221 -14.218,-6.776 -38.127,-28.987 -30.094,-64.442 8.093,-35.722 46.467,-43.218 50.735,-43.669 6.773,-0.717 16.913,-0.313 17.161,-0.313 C -260.024,-2.295 0,-0.683 0,0"
               style="fill:#ffffff;fill-opacity:1;fill-rule:nonzero;stroke:none"
               id="path44"
               inkscape:connector-curvature="0" />
          </g>
          <g
             id="g46"
             transform="translate(234.2402,179.1637)">
            <path
               d="m 0,0 c -3.406,0 -6.193,2.787 -6.193,6.193 v 3.201 c 0,3.406 2.787,6.193 6.193,6.193 H 18.306 V 9.737 H 0 V 5.849 h 12.111 c 3.408,0 6.195,-2.787 6.195,-6.194 v -3.234 c 0,-3.406 -2.787,-6.193 -6.195,-6.193 H -6.193 v 5.849 H 12.111 V 0 Z"
               style="fill:#ffffff;fill-opacity:1;fill-rule:nonzero;stroke:none"
               id="path48"
               inkscape:connector-curvature="0" />
          </g>
          <g
             id="g50"
             transform="translate(255.6748,194.7506)">
            <path
               d="m 0,0 h 18.547 c 3.406,0 6.193,-2.787 6.193,-6.193 v -3.993 c 0,-3.406 -2.787,-6.193 -6.193,-6.193 H 5.85 v -8.98 h -6.194 v 14.83 H 18.547 V -5.85 H 0 Z"
               style="fill:#ffffff;fill-opacity:1;fill-rule:nonzero;stroke:none"
               id="path52"
               inkscape:connector-curvature="0" />
          </g>
          <g
             id="g54"
             transform="translate(290.8047,194.7506)">
            <path
               d="M 0,0 H 6.642 L 0.517,-15.932 h 5.642 l -1.1,2.857 3.302,8.601 8.052,-20.885 H 9.772 l -1.376,3.578 h -10.15 l -1.377,-3.578 h -6.64 z"
               style="fill:#ffffff;fill-opacity:1;fill-rule:nonzero;stroke:none"
               id="path56"
               inkscape:connector-curvature="0" />
          </g>
          <g
             id="g58"
             transform="translate(333.4365,178.7164)">
            <path
               d="m 0,0 v -3.098 c 0,-3.406 -2.787,-6.193 -6.193,-6.193 h -12.8 c -3.406,0 -6.194,2.787 -6.194,6.193 V 9.841 c 0,3.406 2.788,6.193 6.194,6.193 h 12.8 C -2.787,16.034 0,13.247 0,9.841 V 6.743 h -6.193 v 3.442 h -12.8 V -3.441 h 12.8 V 0 Z"
               style="fill:#ffffff;fill-opacity:1;fill-rule:nonzero;stroke:none"
               id="path60"
               inkscape:connector-curvature="0" />
          </g>
          <g
             id="g62"
             transform="translate(341.7617,169.4254)">
            <path
               d="m 0,0 c -3.406,0 -6.193,2.787 -6.193,6.193 v 12.939 c 0,3.406 2.787,6.193 6.193,6.193 H 17.272 V 19.476 H 0 V 15.587 H 16.929 V 9.738 H 0 V 5.85 H 17.617 V 0 Z"
               style="fill:#ffffff;fill-opacity:1;fill-rule:nonzero;stroke:none"
               id="path64"
               inkscape:connector-curvature="0" />
          </g>
        </g>
      </g>
    </g>
  </g>
</svg>
